<svg width="16" height="16" viewBox="0 0 16 16" fill="none" xmlns="http://www.w3.org/2000/svg">
<path fill-rule="evenodd" clip-rule="evenodd" d="M8 1.15125C7.34257 1.15125 6.77061 1.57282 5.6267 2.41598L5.39079 2.58987C5.21059 2.7227 5.12048 2.78911 5.02375 2.84496C4.92701 2.90081 4.82444 2.94564 4.61931 3.03528L4.35076 3.15265C3.04861 3.72172 2.39754 4.00626 2.06882 4.57562C1.7401 5.14498 1.81922 5.85109 1.97746 7.26333L2.0101 7.55457C2.03502 7.77705 2.04749 7.88829 2.04749 7.99999C2.04749 8.11169 2.03502 8.22293 2.0101 8.44541L1.97746 8.73665C1.81922 10.1489 1.7401 10.855 2.06882 11.4244C2.39754 11.9937 3.04861 12.2783 4.35076 12.8473L4.61931 12.9647C4.82444 13.0543 4.92701 13.0992 5.02375 13.155C5.12048 13.2109 5.21059 13.2773 5.39079 13.4101L5.6267 13.584C6.77061 14.4272 7.34257 14.8487 8 14.8487C8.65744 14.8487 9.2294 14.4272 10.3733 13.584L10.6092 13.4101C10.7894 13.2773 10.8795 13.2109 10.9763 13.155C11.073 13.0992 11.1756 13.0543 11.3807 12.9647L11.3807 12.9647L11.6492 12.8473C12.9514 12.2783 13.6025 11.9937 13.9312 11.4244C14.2599 10.855 14.1808 10.1489 14.0225 8.73665L13.9899 8.44541L13.9899 8.44538C13.965 8.22292 13.9525 8.11169 13.9525 7.99999C13.9525 7.88829 13.965 7.77706 13.9899 7.5546L13.9899 7.55458L14.0225 7.26333C14.1808 5.85109 14.2599 5.14498 13.9312 4.57562C13.6025 4.00626 12.9514 3.72172 11.6492 3.15265L11.3807 3.03528C11.1756 2.94564 11.073 2.90081 10.9763 2.84496C10.8795 2.78911 10.7894 2.7227 10.6092 2.58987L10.3733 2.41598C9.2294 1.57282 8.65744 1.15125 8 1.15125ZM8 10.6667C9.47276 10.6667 10.6667 9.47275 10.6667 7.99999C10.6667 6.52723 9.47276 5.33332 8 5.33332C6.52725 5.33332 5.33334 6.52723 5.33334 7.99999C5.33334 9.47275 6.52725 10.6667 8 10.6667Z" fill="white"/>
</svg>
