<svg width="12" height="13" viewBox="0 0 12 13" fill="none" xmlns="http://www.w3.org/2000/svg">
<path fill-rule="evenodd" clip-rule="evenodd" d="M12 6.5C12 9.81371 9.31371 12.5 6 12.5C2.68629 12.5 0 9.81371 0 6.5C0 3.18629 2.68629 0.5 6 0.5C9.31371 0.5 12 3.18629 12 6.5ZM6.66667 10.5C6.66667 10.8682 6.36819 11.1667 6 11.1667C5.63181 11.1667 5.33333 10.8682 5.33333 10.5C5.33333 10.1318 5.63181 9.83333 6 9.83333C6.36819 9.83333 6.66667 10.1318 6.66667 10.5ZM6 1.5C4.34315 1.5 3 2.84315 3 4.5H5C5 3.94772 5.44772 3.5 6 3.5H6.06287C6.58043 3.5 7 3.91957 7 4.43713V4.77924C7 4.9783 6.87262 5.15503 6.68377 5.21798C5.67824 5.55316 5 6.49417 5 7.55409V9.16667H7V7.55409C7 7.35503 7.12738 7.1783 7.31623 7.11535C8.32176 6.78017 9 5.83917 9 4.77924V4.43713C9 2.815 7.685 1.5 6.06287 1.5H6Z" fill="white"/>
</svg>
