<svg width="78" height="44" viewBox="0 0 78 44" fill="none" xmlns="http://www.w3.org/2000/svg">
<path d="M1.07422 6.08594H2.98828L3.37891 7.74609H5.95703V9.79688H3.66211V14.5137C3.66211 15.4707 4.07552 15.9492 4.90234 15.9492H5.95703V18H3.65234C1.93359 18 1.07422 17.0788 1.07422 15.2363V6.08594ZM7.72461 18V4.03516H10.3125V9.05469C11.1198 8.18229 12.1517 7.74609 13.4082 7.74609C15.8366 7.74609 17.0508 9.00911 17.0508 11.5352V18H14.4629V11.5352C14.4629 10.4023 13.8997 9.83594 12.7734 9.83594C11.9336 9.83594 11.1133 10.1712 10.3125 10.8418V18H7.72461ZM23.8281 7.74609C26.9401 7.74609 28.4961 9.33464 28.4961 12.5117C28.4961 12.9349 28.4668 13.3581 28.4082 13.7812H21.6016C21.6016 15.2266 22.6628 15.9492 24.7852 15.9492C25.8203 15.9492 26.8555 15.8516 27.8906 15.6562V17.707C26.9857 17.9023 25.8854 18 24.5898 18C20.8724 18 19.0137 16.252 19.0137 12.7559C19.0137 9.41602 20.6185 7.74609 23.8281 7.74609ZM21.6016 11.9844H25.9766V11.9062C25.9766 10.487 25.2604 9.77734 23.8281 9.77734C22.4609 9.77734 21.7188 10.513 21.6016 11.9844Z" fill="white"/>
<path d="M1.2207 40V29.7461H3.22266L3.54492 31.0547C4.44336 30.1823 5.39388 29.7461 6.39648 29.7461V31.8359C5.43294 31.8359 4.57031 32.2363 3.80859 33.0371V40H1.2207ZM12.1875 29.7461C15.2995 29.7461 16.8555 31.3346 16.8555 34.5117C16.8555 34.9349 16.8262 35.3581 16.7676 35.7812H9.96094C9.96094 37.2266 11.0221 37.9492 13.1445 37.9492C14.1797 37.9492 15.2148 37.8516 16.25 37.6562V39.707C15.3451 39.9023 14.2448 40 12.9492 40C9.23177 40 7.37305 38.252 7.37305 34.7559C7.37305 31.416 8.97786 29.7461 12.1875 29.7461ZM9.96094 33.9844H14.3359V33.9062C14.3359 32.487 13.6198 31.7773 12.1875 31.7773C10.8203 31.7773 10.0781 32.513 9.96094 33.9844ZM17.5781 29.7461H20.3125L22.8027 36.9141L25.3906 29.7461H28.125L23.9551 40H21.4941L17.5781 29.7461ZM33.6719 29.7461C36.7839 29.7461 38.3398 31.3346 38.3398 34.5117C38.3398 34.9349 38.3105 35.3581 38.252 35.7812H31.4453C31.4453 37.2266 32.5065 37.9492 34.6289 37.9492C35.6641 37.9492 36.6992 37.8516 37.7344 37.6562V39.707C36.8294 39.9023 35.7292 40 34.4336 40C30.7161 40 28.8574 38.252 28.8574 34.7559C28.8574 31.416 30.4622 29.7461 33.6719 29.7461ZM31.4453 33.9844H35.8203V33.9062C35.8203 32.487 35.1042 31.7773 33.6719 31.7773C32.3047 31.7773 31.5625 32.513 31.4453 33.9844ZM40.2832 40V29.7461H42.2852L42.6074 31.25C43.5905 30.2474 44.7103 29.7461 45.9668 29.7461C48.3952 29.7461 49.6094 31.0091 49.6094 33.5352V40H47.0215V33.5352C47.0215 32.4023 46.4583 31.8359 45.332 31.8359C44.4922 31.8359 43.6719 32.1712 42.8711 32.8418V40H40.2832Z" fill="white"/>
<rect x="55" y="23.5" width="23" height="19" rx="4" fill="#0771ED"/>
<path d="M59.2822 35.3037V36.5H57.9883V35.3037H59.2822ZM66.0742 36.207C65.472 36.4349 64.7884 36.5488 64.0234 36.5488C61.5169 36.5488 60.2637 35.3363 60.2637 32.9111C60.2637 30.6162 61.5169 29.4688 64.0234 29.4688C64.7884 29.4688 65.472 29.5827 66.0742 29.8105V30.9824C65.472 30.722 64.821 30.5918 64.1211 30.5918C62.4447 30.5918 61.6064 31.3649 61.6064 32.9111C61.6064 34.5876 62.4447 35.4258 64.1211 35.4258C64.821 35.4258 65.472 35.2956 66.0742 35.0352V36.207ZM68.3936 32.9893C68.3936 34.6136 69.1146 35.4258 70.5566 35.4258C71.9629 35.4258 72.666 34.6136 72.666 32.9893C72.666 31.391 71.9629 30.5918 70.5566 30.5918C69.1146 30.5918 68.3936 31.391 68.3936 32.9893ZM67.0508 33.0186C67.0508 30.652 68.2194 29.4688 70.5566 29.4688C72.8581 29.4688 74.0088 30.652 74.0088 33.0186C74.0088 35.3721 72.8581 36.5488 70.5566 36.5488C68.3236 36.5488 67.1549 35.3721 67.0508 33.0186Z" fill="white"/>
</svg>
