<svg width="10" height="15" viewBox="0 0 10 15" fill="none" xmlns="http://www.w3.org/2000/svg">
<path fill-rule="evenodd" clip-rule="evenodd" d="M0.333328 6.49999H3.58604L2.21913 4.79135L3.78086 3.54196L6.44753 6.87529L6.94729 7.49999L6.44753 8.12468L3.78086 11.458L2.21913 10.2086L3.58604 8.49999H0.333328C0.333332 11.1129 0.334983 12.4213 1.03821 13.2568C1.24944 13.5077 1.5004 13.7223 1.78109 13.892C2.71775 14.4584 4.01445 14.2546 6.60785 13.8471C7.90902 13.6426 8.5596 13.5404 8.99926 13.1475C9.13279 13.0282 9.24968 12.8915 9.34682 12.7411C9.66666 12.2457 9.66666 11.5872 9.66666 10.27V4.7294C9.66666 3.41226 9.66666 2.7537 9.34682 2.25838C9.24968 2.10795 9.13279 1.97125 8.99926 1.85194C8.5596 1.45908 7.90902 1.35685 6.60785 1.15238C4.01445 0.744845 2.71775 0.541078 1.78109 1.10742C1.5004 1.27714 1.24944 1.49174 1.03821 1.74268C0.334934 2.57815 0.333332 3.8867 0.333328 6.49999Z" fill="white"/>
</svg>
