<svg width="16" height="16" viewBox="0 0 16 16" fill="none" xmlns="http://www.w3.org/2000/svg">
<path d="M10 10V9.33334H9.33333V10H10ZM13.5286 14.4714C13.7889 14.7317 14.2111 14.7317 14.4714 14.4714C14.7317 14.2111 14.7317 13.7889 14.4714 13.5286L13.5286 14.4714ZM10 6.00001H9.33333V6.66668H10V6.00001ZM14.4714 2.47142C14.7317 2.21106 14.7317 1.78896 14.4714 1.5286C14.2111 1.26826 13.7889 1.26826 13.5286 1.5286L14.4714 2.47142ZM6 10H6.66667V9.33334H6V10ZM1.52859 13.5286C1.26825 13.7889 1.26825 14.2111 1.52859 14.4714C1.78895 14.7317 2.21105 14.7317 2.47141 14.4714L1.52859 13.5286ZM6 6.00001V6.66668H6.66667V6.00001H6ZM2.47141 1.5286C2.21105 1.26826 1.78895 1.26826 1.52859 1.5286C1.26825 1.78896 1.26825 2.21106 1.52859 2.47142L2.47141 1.5286ZM10.6667 13.3333V10H9.33333V13.3333H10.6667ZM10 10.6667H13.3333V9.33334H10V10.6667ZM9.5286 10.4714L13.5286 14.4714L14.4714 13.5286L10.4714 9.52861L9.5286 10.4714ZM9.33333 2.66668V6.00001H10.6667V2.66668H9.33333ZM10 6.66668H13.3333V5.33334H10V6.66668ZM10.4714 6.47142L14.4714 2.47142L13.5286 1.5286L9.5286 5.5286L10.4714 6.47142ZM6.66667 13.3333V10H5.33333V13.3333H6.66667ZM6 9.33334H2.66667V10.6667H6V9.33334ZM5.52859 9.52861L1.52859 13.5286L2.47141 14.4714L6.47141 10.4714L5.52859 9.52861ZM5.33333 2.66668V6.00001H6.66667V2.66668H5.33333ZM6 5.33334H2.66667V6.66668H6V5.33334ZM6.47141 5.5286L2.47141 1.5286L1.52859 2.47142L5.52859 6.47142L6.47141 5.5286Z" fill="#CCD2E3"/>
</svg>
